<mxfile host="app.diagrams.net" agent="Mozilla/5.0 (X11; Linux x86_64; rv:137.0) Gecko/20100101 Firefox/137.0" version="24.8.3">
  <diagram name="Page-1" id="8vTkoRxPIU74bHUiPlwj">
    <mxGraphModel dx="1434" dy="741" grid="1" gridSize="10" guides="1" tooltips="1" connect="1" arrows="1" fold="1" page="1" pageScale="1" pageWidth="850" pageHeight="1100" math="0" shadow="0">
      <root>
        <mxCell id="0" />
        <mxCell id="1" parent="0" />
        <mxCell id="NmGhnDdEYjW5Qu6I9NNq-12" style="edgeStyle=orthogonalEdgeStyle;rounded=0;orthogonalLoop=1;jettySize=auto;html=1;" edge="1" parent="1" source="NmGhnDdEYjW5Qu6I9NNq-1" target="NmGhnDdEYjW5Qu6I9NNq-2">
          <mxGeometry relative="1" as="geometry" />
        </mxCell>
        <mxCell id="NmGhnDdEYjW5Qu6I9NNq-14" style="edgeStyle=orthogonalEdgeStyle;rounded=0;orthogonalLoop=1;jettySize=auto;html=1;entryX=0.5;entryY=1;entryDx=0;entryDy=0;" edge="1" parent="1" source="NmGhnDdEYjW5Qu6I9NNq-1" target="NmGhnDdEYjW5Qu6I9NNq-3">
          <mxGeometry relative="1" as="geometry" />
        </mxCell>
        <mxCell id="NmGhnDdEYjW5Qu6I9NNq-19" style="edgeStyle=orthogonalEdgeStyle;rounded=0;orthogonalLoop=1;jettySize=auto;html=1;entryX=0;entryY=0.5;entryDx=0;entryDy=0;" edge="1" parent="1" source="NmGhnDdEYjW5Qu6I9NNq-1" target="NmGhnDdEYjW5Qu6I9NNq-17">
          <mxGeometry relative="1" as="geometry">
            <mxPoint x="425" y="290" as="targetPoint" />
          </mxGeometry>
        </mxCell>
        <mxCell id="NmGhnDdEYjW5Qu6I9NNq-1" value="Database" style="rounded=0;whiteSpace=wrap;html=1;" vertex="1" parent="1">
          <mxGeometry x="360" y="400" width="130" height="60" as="geometry" />
        </mxCell>
        <mxCell id="NmGhnDdEYjW5Qu6I9NNq-16" style="edgeStyle=orthogonalEdgeStyle;rounded=0;orthogonalLoop=1;jettySize=auto;html=1;" edge="1" parent="1" source="NmGhnDdEYjW5Qu6I9NNq-2" target="NmGhnDdEYjW5Qu6I9NNq-1">
          <mxGeometry relative="1" as="geometry" />
        </mxCell>
        <mxCell id="NmGhnDdEYjW5Qu6I9NNq-2" value="Leaderboard(s)" style="rounded=0;whiteSpace=wrap;html=1;" vertex="1" parent="1">
          <mxGeometry x="140" y="400" width="120" height="60" as="geometry" />
        </mxCell>
        <mxCell id="NmGhnDdEYjW5Qu6I9NNq-15" style="edgeStyle=orthogonalEdgeStyle;rounded=0;orthogonalLoop=1;jettySize=auto;html=1;entryX=0.5;entryY=0;entryDx=0;entryDy=0;" edge="1" parent="1" source="NmGhnDdEYjW5Qu6I9NNq-3" target="NmGhnDdEYjW5Qu6I9NNq-1">
          <mxGeometry relative="1" as="geometry" />
        </mxCell>
        <mxCell id="NmGhnDdEYjW5Qu6I9NNq-3" value="&lt;div&gt;Login/Register&lt;/div&gt;" style="rounded=0;whiteSpace=wrap;html=1;" vertex="1" parent="1">
          <mxGeometry x="365" y="130" width="120" height="60" as="geometry" />
        </mxCell>
        <mxCell id="NmGhnDdEYjW5Qu6I9NNq-4" value="WHSolverAPI" style="rounded=0;whiteSpace=wrap;html=1;" vertex="1" parent="1">
          <mxGeometry x="90" y="650" width="120" height="60" as="geometry" />
        </mxCell>
        <mxCell id="NmGhnDdEYjW5Qu6I9NNq-8" style="edgeStyle=orthogonalEdgeStyle;rounded=0;orthogonalLoop=1;jettySize=auto;html=1;entryX=0.5;entryY=0;entryDx=0;entryDy=0;" edge="1" parent="1" source="NmGhnDdEYjW5Qu6I9NNq-5" target="NmGhnDdEYjW5Qu6I9NNq-4">
          <mxGeometry relative="1" as="geometry" />
        </mxCell>
        <mxCell id="NmGhnDdEYjW5Qu6I9NNq-9" style="edgeStyle=orthogonalEdgeStyle;rounded=0;orthogonalLoop=1;jettySize=auto;html=1;" edge="1" parent="1" source="NmGhnDdEYjW5Qu6I9NNq-5" target="NmGhnDdEYjW5Qu6I9NNq-2">
          <mxGeometry relative="1" as="geometry">
            <Array as="points">
              <mxPoint x="150" y="510" />
              <mxPoint x="200" y="510" />
            </Array>
          </mxGeometry>
        </mxCell>
        <mxCell id="NmGhnDdEYjW5Qu6I9NNq-5" value="&lt;div&gt;Word Hunt&lt;/div&gt;" style="whiteSpace=wrap;html=1;" vertex="1" parent="1">
          <mxGeometry x="90" y="540" width="120" height="60" as="geometry" />
        </mxCell>
        <mxCell id="NmGhnDdEYjW5Qu6I9NNq-10" style="edgeStyle=orthogonalEdgeStyle;rounded=0;orthogonalLoop=1;jettySize=auto;html=1;entryX=0.5;entryY=1;entryDx=0;entryDy=0;" edge="1" parent="1" source="NmGhnDdEYjW5Qu6I9NNq-6" target="NmGhnDdEYjW5Qu6I9NNq-2">
          <mxGeometry relative="1" as="geometry">
            <Array as="points">
              <mxPoint x="425" y="510" />
              <mxPoint x="200" y="510" />
            </Array>
          </mxGeometry>
        </mxCell>
        <mxCell id="NmGhnDdEYjW5Qu6I9NNq-6" value="&lt;div&gt;Anagrams&lt;/div&gt;" style="whiteSpace=wrap;html=1;" vertex="1" parent="1">
          <mxGeometry x="365" y="540" width="120" height="60" as="geometry" />
        </mxCell>
        <mxCell id="NmGhnDdEYjW5Qu6I9NNq-11" style="edgeStyle=orthogonalEdgeStyle;rounded=0;orthogonalLoop=1;jettySize=auto;html=1;entryX=0.5;entryY=1;entryDx=0;entryDy=0;" edge="1" parent="1" source="NmGhnDdEYjW5Qu6I9NNq-7" target="NmGhnDdEYjW5Qu6I9NNq-2">
          <mxGeometry relative="1" as="geometry">
            <Array as="points">
              <mxPoint x="690" y="510" />
              <mxPoint x="200" y="510" />
            </Array>
          </mxGeometry>
        </mxCell>
        <mxCell id="NmGhnDdEYjW5Qu6I9NNq-7" value="&lt;div&gt;Word Bites&lt;/div&gt;" style="whiteSpace=wrap;html=1;" vertex="1" parent="1">
          <mxGeometry x="630" y="540" width="120" height="60" as="geometry" />
        </mxCell>
        <mxCell id="NmGhnDdEYjW5Qu6I9NNq-17" value="&lt;div&gt;Profile + Friends&lt;/div&gt;" style="whiteSpace=wrap;html=1;" vertex="1" parent="1">
          <mxGeometry x="480" y="270" width="120" height="60" as="geometry" />
        </mxCell>
      </root>
    </mxGraphModel>
  </diagram>
</mxfile>
